<?xml version="1.0" encoding="UTF-8" standalone="no"?>
<!-- Created with Inkscape (http://www.inkscape.org/) -->

<svg
   xmlns:dc="http://purl.org/dc/elements/1.1/"
   xmlns:cc="http://creativecommons.org/ns#"
   xmlns:rdf="http://www.w3.org/1999/02/22-rdf-syntax-ns#"
   xmlns:svg="http://www.w3.org/2000/svg"
   xmlns="http://www.w3.org/2000/svg"
   xmlns:sodipodi="http://sodipodi.sourceforge.net/DTD/sodipodi-0.dtd"
   xmlns:inkscape="http://www.inkscape.org/namespaces/inkscape"
   width="210mm"
   height="297mm"
   viewBox="0 0 210 297"
   version="1.1"
   id="svg4173"
   inkscape:version="0.92.4 (5da689c313, 2019-01-14)"
   sodipodi:docname="hide_the_pain_cow.svg">
  <defs
     id="defs4167" />
  <sodipodi:namedview
     id="base"
     pagecolor="#ffffff"
     bordercolor="#666666"
     borderopacity="1.0"
     inkscape:pageopacity="0.0"
     inkscape:pageshadow="2"
     inkscape:zoom="3.2310486"
     inkscape:cx="201.30513"
     inkscape:cy="645.13572"
     inkscape:document-units="mm"
     inkscape:current-layer="layer2"
     showgrid="false"
     inkscape:window-width="1366"
     inkscape:window-height="708"
     inkscape:window-x="0"
     inkscape:window-y="31"
     inkscape:window-maximized="1" />
  <metadata
     id="metadata4170">
    <rdf:RDF>
      <cc:Work
         rdf:about="">
        <dc:format>image/svg+xml</dc:format>
        <dc:type
           rdf:resource="http://purl.org/dc/dcmitype/StillImage" />
        <dc:title></dc:title>
      </cc:Work>
    </rdf:RDF>
  </metadata>
  <g
     inkscape:groupmode="layer"
     id="layer2"
     inkscape:label="Capa 2"
     style="display:inline">
    <path
       style="fill:#ffffff;stroke:#000000;stroke-width:0.26458332px;stroke-linecap:butt;stroke-linejoin:miter;stroke-opacity:1;fill-opacity:1"
       d="m 45.798107,137.57882 -0.976998,3.28332 1.231144,7.81685 4.418274,3.0422 2.053921,0.34401 4.320299,-0.50826 1.839433,-0.69824 6.927099,-4.40817 1.802455,-2.82117 -0.07807,-4.82565 -0.828889,-3.0488 3.982939,-0.78335 4.56768,-2.66057 3.142284,-3.28366 0.249232,-6.70189 -1.916075,-3.44894 -2.200588,-1.54669 -2.27308,0.005 -1.841931,1.29322 -1.348711,2.16418 -0.383215,1.14965 -2.464744,-3.67263 7.993179,-5.73798 2.645119,-5.02808 1.537425,-1.02353 -2.370844,-1.40283 -7.902819,1.71457 -5.294886,8.18315 -2.573171,-6.44521 -2.677594,-2.80375 -6.283121,-2.32754 3.978915,3.98164 -0.614616,6.67442 -1.141736,2.37729 -2.492946,-0.91319 -2.768174,3.12422 -3.478837,0.29352 -5.688436,-0.5925 -1.443167,-4.83231 -2.495132,4.01633 -0.187375,2.88155 4.215368,3.83215 5.454711,1.44317 0.02077,1.45883 -1.643333,-0.2195 -3.448939,3.44895 -3.065724,1.53286 -1.532861,4.98179 -0.706636,4.09578 5.275321,-1.50294 5.66435,-5.57697 z"
       id="path30"
       inkscape:connector-curvature="0" />
  </g>
  <g
     inkscape:label="Capa 1"
     inkscape:groupmode="layer"
     id="layer1"
     style="display:none">
    <g
       id="g4229"
       transform="matrix(0.26458333,0,0,0.26458333,66.174646,-140.56864)"
       inkscape:export-filename="C:\Users\Jaime\Documents\Jaime\Física\Relatividad\TEXTO\El sueño de Einstein\Shock.png"
       inkscape:export-xdpi="90"
       inkscape:export-ydpi="90">
      <path
         sodipodi:nodetypes="cccccccccc"
         inkscape:connector-curvature="0"
         id="path3829-7-5"
         d="m -108.58504,960.30286 -9.43042,15.17984 -0.70819,10.89089 15.9321,14.48371 20.616235,5.4545 2.55775,-8.35123 11.13498,-18.26384 -13.14836,1.10936 -21.499605,-2.23938 z"
         style="fill:none;stroke:#010000;stroke-width:4;stroke-linecap:butt;stroke-linejoin:miter;stroke-miterlimit:4;stroke-dasharray:none;stroke-opacity:1" />
      <path
         sodipodi:nodetypes="cccccccccccccccc"
         inkscape:connector-curvature="0"
         id="path3835-1-0"
         d="m -78.169195,1013.8927 -10.13861,-2.8968 v 0 0 l -13.035365,13.0354 -11.58699,5.7935 -5.79349,18.8288 -2.67075,15.4801 19.93822,-5.6804 5.012815,-6.5742 16.8258,-16.2608 11.58699,-17.3805 -6.50169,8.7222 -12.32717,-0.032 -11.58699,8.6903 -11.586985,19.8252"
         style="fill:none;stroke:#010000;stroke-width:4;stroke-linecap:butt;stroke-linejoin:miter;stroke-miterlimit:4;stroke-dasharray:none;stroke-opacity:1" />
      <path
         sodipodi:nodetypes="ccccccccccccccccccccccccccccccccccccccc"
         inkscape:connector-curvature="0"
         id="path3837-5-2"
         d="m -63.685455,1032.7215 -8.8573,12.1788 -2.72969,3.7533 -2.22592,4.3966 -3.20791,10.6252 -0.35967,3.8071 0.60675,3.6405 2.49029,17.2786 1.91577,4.8178 2.82943,2.582 13.86956,8.9161 4.57977,0.8695 3.18308,0.4307 16.32869,-1.921 4.44289,-1.4064 2.5093,-1.2326 26.1811599,-16.6608 1.83838999,-1.7161 2.23653001,-3.4716 2.73751,-5.475 0.4856,-1.6389 0.32575,-4.429 -1.10643,-12.1708 -3.13281,-11.523 -8.45418,1.2443 -15.9321099,4.4852 -13.30004,5.5295 -2.63207,1.7124 -2.5739,4.1463 -3.21959,7.4407 -3.24966,14.0818 0.23991,4.0793 1.71846,3.1108 2.44275,1.9542 1.74529,-0.273 2.50815,-0.1223 7.63046,-5.4504 31.23210989,-39.4182 -5.93356999,-1.3083"
         style="fill:none;stroke:#010000;stroke-width:4;stroke-linecap:butt;stroke-linejoin:miter;stroke-miterlimit:4;stroke-dasharray:none;stroke-opacity:1" />
      <path
         inkscape:connector-curvature="0"
         id="path3839-2-8"
         d="M -41.959855,1063.1374 Z"
         style="fill:none;stroke:#010000;stroke-width:1px;stroke-linecap:butt;stroke-linejoin:miter;stroke-opacity:1" />
      <path
         inkscape:connector-curvature="0"
         id="path3841-7-6"
         d="m -40.511485,1063.1374 5.79349,7.2418 v 0 l 1.44838,14.4838"
         style="fill:none;stroke:#010000;stroke-width:4;stroke-linecap:butt;stroke-linejoin:miter;stroke-miterlimit:4;stroke-dasharray:none;stroke-opacity:1" />
      <path
         sodipodi:nodetypes="cccccccccccccccccccccccccc"
         inkscape:connector-curvature="0"
         id="path3843-6-0"
         d="m -1.4054051,1044.3085 v 0 l 14.2445701,-2.3741 3.46975,-0.5226 2.9906,-1.8997 14.27307,-8.156 2.34588,-1.8652 2.37076,-2.0757 7.15971,-8.4698 1.17804,-3.8404 0.61274,-4.2042 -0.8488,-17.28535 -7.24186,-13.03536 -8.31718,-5.84579 -8.59117,0.0203 -6.96163,4.88777 -5.09749,8.17958 -1.4483701,4.34512 -4.34512,5.79349 -11.58699,-3.16481 -10.1386199,3.16481 -5.79349,5.79354 -2.18568,8.6232 -0.97913,5.6244 2.93797,5.1674 7.46871,5.2073"
         style="fill:none;stroke:#010000;stroke-width:4;stroke-linecap:butt;stroke-linejoin:miter;stroke-miterlimit:4;stroke-dasharray:none;stroke-opacity:1" />
      <path
         sodipodi:nodetypes="ccccc"
         inkscape:connector-curvature="0"
         id="path3845-1-2"
         d="m -58.020195,967.88865 9.42216,3.45144 -9.41184,26.36611 -0.78586,-18.28449 z"
         style="fill:#000000;fill-opacity:1;stroke:#000004;stroke-width:4;stroke-linecap:butt;stroke-linejoin:miter;stroke-miterlimit:4;stroke-dasharray:none;stroke-opacity:1" />
      <path
         sodipodi:nodetypes="cccccccccc"
         inkscape:connector-curvature="0"
         id="path3847-4-4"
         d="m -44.856605,963.19961 2.89675,-26.07072 -15.03842,-15.04874 0.78068,0.32869 22.96655,8.46833 10.12004,10.59684 7.24187,23.17397 v 4.34513 l -11.58699,-8.69025 z"
         style="fill:none;stroke:#010000;stroke-width:4;stroke-linecap:butt;stroke-linejoin:miter;stroke-miterlimit:4;stroke-dasharray:none;stroke-opacity:1" />
      <path
         inkscape:connector-curvature="0"
         id="path3849-2-8"
         d="m -5.7505251,974.7866 14.48374,17.38048"
         style="fill:none;stroke:#010000;stroke-width:4;stroke-linecap:butt;stroke-linejoin:miter;stroke-miterlimit:4;stroke-dasharray:none;stroke-opacity:1" />
      <path
         inkscape:connector-curvature="0"
         id="path3865-6-6"
         d="m -25.019845,984.25423 3.69081,2.7681 v 0 l 7.07405,0.30757 3.07567,-3.38324 0.92271,-4.30594 -4.30595,-2.76811 -4.30594,-0.9227 -3.69081,1.23027 -1.53784,4.30594 z"
         style="fill:#000000;fill-opacity:1;stroke:#010000;stroke-width:1px;stroke-linecap:butt;stroke-linejoin:miter;stroke-opacity:1" />
      <path
         inkscape:connector-curvature="0"
         id="path3867-8-5"
         d="m -13.672985,1009.882 0.61514,5.2286 3.3832399,-0.9227 1.23027,4.9211 0.30756,-0.9227 1.23027,2.7681 7.99676,-0.3076 0.61513,1.8454 2.76811,1.2303 3.69081,-2.7681 v -4.9211 l -1.23027,-5.2286 -1.53784,-3.3833 -8.61189,-4.921 -4.61351,1.8454 -2.4605399,1.5378 z"
         style="fill:#000000;fill-opacity:1;stroke:#010000;stroke-width:1px;stroke-linecap:butt;stroke-linejoin:miter;stroke-opacity:1" />
      <path
         sodipodi:nodetypes="ssscscscsscs"
         inkscape:connector-curvature="0"
         id="path3875-5-0"
         d="m -37.868445,962.03113 c -1.37049,-3.23599 -2.49181,-6.1215 -2.49181,-6.41225 0,-0.29074 4.28402,1.10254 9.52006,3.09618 l 9.52009,3.62482 4.88707,5.96606 c 2.6879,3.28133 4.34618,5.04349 4.26212,5.07 -0.0841,0.0265 -2.77107,-0.94497 -6.54818,-3.31291 l -6.63136,-3.12504 -3.47834,-0.39454 c -1.82318,-0.2068 -3.98603,0.91754 -4.89507,1.07856 l -1.65277,0.29277 z"
         style="fill:#000101;fill-opacity:1;stroke:#000004;stroke-width:2.70306826;stroke-linejoin:bevel;stroke-miterlimit:4;stroke-dasharray:none;stroke-dashoffset:0;stroke-opacity:1" />
      <path
         sodipodi:nodetypes="cscssscscscccc"
         inkscape:connector-curvature="0"
         id="path3877-7-9"
         d="m -31.459455,1079.9305 c -0.16246,-0.9346 -0.45744,-3.6855 -0.6555,-6.1131 l -0.36011,-4.4138 -3.1315,-3.8366 c -3.01735,-3.6968 -3.10412,-3.8854 -2.38032,-5.175 0.53996,-0.962 2.71952,-2.247 7.75135,-4.5699 l 7.00016,-3.2316 8.45362,-3.1004 c 4.50658,-1.6528 9.2272699,-1.2734 9.4052899,-0.7988 0.21442,0.5716 -6.9775799,8.6975 -22.2528599,28.3832 l -3.53473,4.5553 z"
         style="fill:#000101;fill-opacity:1;stroke:#000004;stroke-width:2.07707477;stroke-linejoin:bevel;stroke-miterlimit:4;stroke-dasharray:none;stroke-dashoffset:0;stroke-opacity:1" />
      <path
         inkscape:connector-curvature="0"
         id="path3923-1-0"
         d="m 33.993315,930.47107 6.17015,-2.05671 -0.22853,4.11343 -6.17014,3.65638 0.22852,-5.7131"
         style="fill:#ffffff;fill-opacity:1;stroke:#ffffff;stroke-width:1px;stroke-linecap:butt;stroke-linejoin:miter;stroke-opacity:1" />
      <path
         sodipodi:nodetypes="cc"
         inkscape:connector-curvature="0"
         id="path3925-1-0"
         d="m -81.937815,1000.769 -0.15897,11.0565"
         style="fill:none;stroke:#000000;stroke-width:4;stroke-linecap:butt;stroke-linejoin:miter;stroke-miterlimit:4;stroke-dasharray:none;stroke-opacity:1" />
      <path
         sodipodi:nodetypes="cc"
         inkscape:connector-curvature="0"
         id="path3927-3-6"
         d="m -80.047605,1037.375 3.03392,13.891"
         style="fill:none;stroke:#000000;stroke-width:4;stroke-linecap:butt;stroke-linejoin:miter;stroke-miterlimit:4;stroke-dasharray:none;stroke-opacity:1" />
      <path
         sodipodi:nodetypes="ccccccccc"
         inkscape:connector-curvature="0"
         id="path3935-8-1"
         d="m -13.405635,965.83388 19.7134899,-28.86656 0.29868,-2.0619 29.8689201,-6.48025 8.96067,5.30202 -30.46628,13.84417 -5.3764101,17.96796 15.5318301,-11.78227 9.24801,-13.74699"
         style="fill:none;stroke:#000000;stroke-width:3.62922597;stroke-linecap:round;stroke-linejoin:round;stroke-miterlimit:4;stroke-dasharray:none;stroke-opacity:1;marker-start:none" />
      <path
         sodipodi:nodetypes="ccc"
         inkscape:connector-curvature="0"
         id="path3937-7-3"
         d="m -0.58235511,978.28629 30.21044011,-21.68688 9.9973,-19.00374"
         style="fill:none;stroke:#000000;stroke-width:4;stroke-linecap:butt;stroke-linejoin:miter;stroke-miterlimit:4;stroke-dasharray:none;stroke-opacity:1" />
      <path
         inkscape:connector-curvature="0"
         id="path3867-7-2-8"
         d="m 17.416715,993.76764 0.61514,5.22865 3.38324,-0.92271 1.23027,4.92112 0.30756,-0.9227 1.23027,2.7681 7.99676,-0.3076 0.61513,1.8454 2.76811,1.2303 3.69081,-2.7681 v -4.92111 l -1.23027,-5.22865 -1.53784,-3.38324 -8.61189,-4.92108 -4.61351,1.84541 -2.46054,1.53783 z"
         style="fill:#000000;fill-opacity:1;stroke:#010000;stroke-width:1px;stroke-linecap:butt;stroke-linejoin:miter;stroke-opacity:1" />
      <path
         sodipodi:nodetypes="cc"
         inkscape:connector-curvature="0"
         id="path3171-7-9"
         d="m -44.282815,962.35505 -28.83321,23.99739"
         style="fill:#000000;fill-opacity:1;stroke:#000000;stroke-width:4;stroke-linecap:butt;stroke-linejoin:miter;stroke-miterlimit:4;stroke-dasharray:none;stroke-opacity:1" />
      <path
         inkscape:connector-curvature="0"
         id="path3865-4-1-3"
         d="m -45.276465,994.86697 3.69081,2.7681 v 0 l 7.07405,0.30757 3.07567,-3.38324 0.92271,-4.30594 -4.30595,-2.76811 -4.30594,-0.9227 -3.69081,1.23027 -1.53784,4.30594 z"
         style="fill:#000000;fill-opacity:1;stroke:#010000;stroke-width:1px;stroke-linecap:butt;stroke-linejoin:miter;stroke-opacity:1" />
    </g>
  </g>
</svg>
