<?xml version="1.0" encoding="UTF-8" standalone="no"?>
<!-- Created with Inkscape (http://www.inkscape.org/) -->

<svg
   xmlns:dc="http://purl.org/dc/elements/1.1/"
   xmlns:cc="http://creativecommons.org/ns#"
   xmlns:rdf="http://www.w3.org/1999/02/22-rdf-syntax-ns#"
   xmlns:svg="http://www.w3.org/2000/svg"
   xmlns="http://www.w3.org/2000/svg"
   xmlns:sodipodi="http://sodipodi.sourceforge.net/DTD/sodipodi-0.dtd"
   xmlns:inkscape="http://www.inkscape.org/namespaces/inkscape"
   width="210mm"
   height="297mm"
   viewBox="0 0 210 297"
   version="1.1"
   id="svg4080"
   inkscape:version="0.92.4 (5da689c313, 2019-01-14)"
   sodipodi:docname="sleepy_cow_plain.svg">
  <defs
     id="defs4074" />
  <sodipodi:namedview
     id="base"
     pagecolor="#ffffff"
     bordercolor="#666666"
     borderopacity="1.0"
     inkscape:pageopacity="0.0"
     inkscape:pageshadow="2"
     inkscape:zoom="3.0215353"
     inkscape:cx="190.42159"
     inkscape:cy="637.50089"
     inkscape:document-units="mm"
     inkscape:current-layer="layer2"
     showgrid="false"
     inkscape:window-width="1366"
     inkscape:window-height="708"
     inkscape:window-x="0"
     inkscape:window-y="31"
     inkscape:window-maximized="1" />
  <metadata
     id="metadata4077">
    <rdf:RDF>
      <cc:Work
         rdf:about="">
        <dc:format>image/svg+xml</dc:format>
        <dc:type
           rdf:resource="http://purl.org/dc/dcmitype/StillImage" />
        <dc:title></dc:title>
      </cc:Work>
    </rdf:RDF>
  </metadata>
  <g
     inkscape:groupmode="layer"
     id="layer2"
     inkscape:label="Capa 2"
     style="display:inline">
    <path
       style="fill:#fffff8;stroke:#000000;stroke-width:0.265;stroke-linecap:butt;stroke-linejoin:miter;stroke-opacity:1;fill-opacity:1;stroke-miterlimit:4;stroke-dasharray:none"
       d="m 45.483994,124.44534 -4.002342,-3.97716 -1.734534,-5.42645 1.603044,-2.40181 4.169013,-2.23067 -1.166333,4.90649 4.630073,3.35735 3.159522,1.48521 2.582989,1.54548 1.703433,-2.54005 3.30957,0.34002 4.112688,-5.59054 -1.4551,-5.43764 4.277577,5.15728 0.91699,3.7669 -1.40635,6.26803 5.836711,5.1217 -0.877292,4.04202 2.377022,0.80925 1.340741,2.3318 0.278972,3.93554 -3.058221,5.96866 -4.235606,1.64801 -9.23961,0.68678 -3.003767,-4.05053 -6.991281,1.26015 -5.858028,-3.31253 2.830803,-9.77717 -2.959983,3.86014 -0.830916,2.0234 -4.706573,2.81713 -0.186264,-9.34789 2.564532,-2.27412 2.438765,-4.22407 z"
       id="path123"
       inkscape:connector-curvature="0" />
  </g>
  <g
     inkscape:label="Capa 1"
     inkscape:groupmode="layer"
     id="layer1"
     style="display:inline">
    <g
       id="g72">
      <path
         sodipodi:nodetypes="cc"
         inkscape:connector-curvature="0"
         id="path3817-8-9-6"
         d="m 32.956789,147.84009 10.448978,-5.90658"
         style="fill:none;stroke:#010000;stroke-width:1.05833328;stroke-linecap:butt;stroke-linejoin:miter;stroke-miterlimit:4;stroke-dasharray:none;stroke-opacity:1" />
      <path
         sodipodi:nodetypes="cccccccccc"
         inkscape:connector-curvature="0"
         id="path3829-8-1-2-0"
         d="m 45.519177,110.40925 -4.169013,2.23067 -1.603045,2.40181 1.734535,5.42645 4.002341,3.97716 1.690868,-1.5752 4.967575,-2.71184 -3.159521,-1.48521 -4.630074,-3.35735 z"
         style="fill:none;stroke:#010000;stroke-width:1.05833328;stroke-linecap:butt;stroke-linejoin:miter;stroke-miterlimit:4;stroke-dasharray:none;stroke-opacity:1" />
      <path
         sodipodi:nodetypes="cccccccccccccccc"
         inkscape:connector-curvature="0"
         id="path3835-8-8-6-7"
         d="m 44.693711,125.23205 -2.78947,-0.046 v 0 0 l -2.438765,4.22407 -2.564532,2.27412 -0.191246,5.20877 0.37751,4.13912 4.706572,-2.81713 0.830916,-2.0234 3.18661,-5.30796 1.771057,-5.23537 -1.064329,2.67436 -3.152618,0.83598 -2.366167,3.01442 -1.603639,5.86015"
         style="fill:none;stroke:#010000;stroke-width:1.05833328;stroke-linecap:butt;stroke-linejoin:miter;stroke-miterlimit:4;stroke-dasharray:none;stroke-opacity:1" />
      <path
         sodipodi:nodetypes="ccccc"
         inkscape:connector-curvature="0"
         id="path3845-1-4-0-1"
         d="m 56.42886,119.16373 1.702359,2.03732 -5.644608,4.79631 2.238817,-4.29358 z"
         style="fill:#000000;fill-opacity:1;stroke:#000004;stroke-width:1.05833328;stroke-linecap:butt;stroke-linejoin:miter;stroke-miterlimit:4;stroke-dasharray:none;stroke-opacity:1" />
      <path
         sodipodi:nodetypes="cccccccccc"
         inkscape:connector-curvature="0"
         id="path3847-7-9-1-7"
         d="m 59.73843,119.50375 4.112689,-5.59054 -1.4551,-5.43764 0.135408,0.17859 4.142169,4.97869 0.91699,3.7669 -1.40635,6.26803 -0.574826,0.99563 -1.505347,-3.52409 z"
         style="fill:none;stroke:#010000;stroke-width:1.05833328;stroke-linecap:butt;stroke-linejoin:miter;stroke-miterlimit:4;stroke-dasharray:none;stroke-opacity:1" />
      <path
         sodipodi:nodetypes="cc"
         inkscape:connector-curvature="0"
         id="path3849-1-6-6-7"
         d="m 66.348671,126.51465 1.836957,6.71608"
         style="fill:none;stroke:#010000;stroke-width:1.05833328;stroke-linecap:butt;stroke-linejoin:miter;stroke-miterlimit:4;stroke-dasharray:none;stroke-opacity:1" />
      <path
         inkscape:connector-curvature="0"
         id="path3867-5-7-5-7"
         d="m 59.649694,137.50068 -0.550754,1.27944 0.897287,0.23617 -0.369118,1.29035 0.192537,-0.17074 -0.0843,0.79703 1.873033,0.98743 -0.103183,0.50421 0.47152,0.6481 1.211894,-0.146 0.651018,-1.1276 0.409808,-1.36083 0.0952,-0.97867 -1.322274,-2.26687 -1.301255,-0.18748 -0.767241,0.0268 z"
         style="fill:#000000;fill-opacity:1;stroke:#010000;stroke-width:0.26458332px;stroke-linecap:butt;stroke-linejoin:miter;stroke-opacity:1" />
      <path
         sodipodi:nodetypes="ssscscscsscs"
         inkscape:connector-curvature="0"
         id="path3875-2-8-7-7"
         d="m 61.494247,119.75552 c 0.11407,-0.71506 0.238861,-1.34233 0.277326,-1.39395 0.03847,-0.0516 0.835766,0.63489 1.771788,1.52564 l 1.701863,1.61951 0.330544,1.56027 c 0.1818,0.85815 0.328655,1.34102 0.305882,1.33713 -0.02278,-0.004 -0.509939,-0.45186 -1.062149,-1.2595 l -1.106064,-1.23465 -0.744823,-0.42661 c -0.390395,-0.22363 -1.034724,-0.24569 -1.264317,-0.31031 l -0.417414,-0.1175 z"
         style="fill:#000101;fill-opacity:1;stroke:#000004;stroke-width:0.62956166;stroke-linejoin:bevel;stroke-miterlimit:4;stroke-dasharray:none;stroke-dashoffset:0;stroke-opacity:1" />
      <path
         sodipodi:nodetypes="cc"
         inkscape:connector-curvature="0"
         id="path3925-1-2-5-3"
         d="m 46.271681,123.20669 -1.499121,2.51244"
         style="fill:none;stroke:#000000;stroke-width:1.05833328;stroke-linecap:butt;stroke-linejoin:miter;stroke-miterlimit:4;stroke-dasharray:none;stroke-opacity:1" />
      <path
         sodipodi:nodetypes="cc"
         inkscape:connector-curvature="0"
         id="path3927-4-9-41-3"
         d="m 58.34977,127.64426 -3.757856,-0.17587"
         style="fill:none;stroke:#000000;stroke-width:1.05833328;stroke-linecap:butt;stroke-linejoin:miter;stroke-miterlimit:4;stroke-dasharray:none;stroke-opacity:1" />
      <path
         inkscape:connector-curvature="0"
         id="path3867-7-2-5-2-5"
         d="m 68.905253,137.39204 -0.550752,1.27947 0.897287,0.23614 -0.36912,1.29035 0.19254,-0.17074 -0.0843,0.79703 1.873033,0.98743 -0.103185,0.50421 0.471522,0.6481 1.211895,-0.146 0.651018,-1.1276 0.409805,-1.36083 0.0952,-0.97867 -1.322271,-2.26687 -1.301258,-0.18748 -0.767239,0.0269 z"
         style="fill:#000000;fill-opacity:1;stroke:#010000;stroke-width:0.26458332px;stroke-linecap:butt;stroke-linejoin:miter;stroke-opacity:1" />
      <path
         sodipodi:nodetypes="cc"
         inkscape:connector-curvature="0"
         id="path3171-2-9-0-9"
         d="m 59.981632,119.38614 -9.781376,1.68426"
         style="fill:#000000;fill-opacity:1;stroke:#000000;stroke-width:1.05833328;stroke-linecap:butt;stroke-linejoin:miter;stroke-miterlimit:4;stroke-dasharray:none;stroke-opacity:1" />
      <path
         sodipodi:nodetypes="cc"
         inkscape:connector-curvature="0"
         id="path3927-4-9-4-0-9"
         d="m 65.410522,128.13668 -3.757855,-0.17587"
         style="fill:none;stroke:#000000;stroke-width:1.05833328;stroke-linecap:butt;stroke-linejoin:miter;stroke-miterlimit:4;stroke-dasharray:none;stroke-opacity:1" />
      <path
         sodipodi:nodetypes="cccccccccccccccccccccccccc"
         inkscape:connector-curvature="0"
         id="path3843-0-1-8"
         d="m 45.58468,132.33146 -2.830804,9.77717 5.858029,3.31253 6.991281,-1.26015 3.003767,4.05053 9.239609,-0.68678 0.771078,-0.18492 0.800608,-0.23267 2.66392,-1.23042 0.711915,-0.78917 0.61704,-0.93964 1.729266,-4.23985 -0.278971,-3.93554 -1.340742,-2.3318 -2.062382,-0.95578 -2.215893,0.39362 -2.136971,1.39142 -0.833173,0.87997 -1.689745,0.9034 -2.424613,-2.05454 -2.78506,-0.37476 -2.037058,0.74142 -1.488353,1.82342 -0.86369,1.23921 0.126698,1.56763 1.208683,2.0838"
         style="fill:none;stroke:#010000;stroke-width:1.05833328;stroke-linecap:butt;stroke-linejoin:miter;stroke-miterlimit:4;stroke-dasharray:none;stroke-opacity:1" />
      <path
         sodipodi:nodetypes="ccc"
         inkscape:connector-curvature="0"
         id="path3937-3-3-7-4-1"
         d="m 66.98664,124.07469 5.034306,4.71479 -0.877292,4.04202"
         style="fill:none;stroke:#000000;stroke-width:1.05833328;stroke-linecap:butt;stroke-linejoin:miter;stroke-miterlimit:4;stroke-dasharray:none;stroke-opacity:1" />
    </g>
  </g>
</svg>
